<svg xmlns="http://www.w3.org/2000/svg" width="233.657" height="78.999" viewBox="0 0 233.657 78.999">
  <g id="Group_41" data-name="Group 41" transform="translate(-100 -49)">
    <g id="Group_13" data-name="Group 13" transform="translate(100 49)">
      <g id="Group_10" data-name="Group 10" transform="translate(0 0)">
        <path id="Path_36" data-name="Path 36" d="M37.264,0h4.472A37.264,37.264,0,0,1,79,37.264v4.472A37.264,37.264,0,0,1,41.736,79H37.264A37.264,37.264,0,0,1,0,41.735V37.264A37.264,37.264,0,0,1,37.264,0Z" transform="translate(0 0)" fill="#49f"/>
        <path id="Exclusion_5" data-name="Exclusion 5" d="M9885.586,17069.744a27.735,27.735,0,0,1-27.571-24.748v-.014c-.009-.1-.013-.184-.013-.273a2.718,2.718,0,0,1,2.387-2.7.363.363,0,0,1,.056-.008H9861a.441.441,0,0,1,.057.008h49.132a2.692,2.692,0,0,1,.274-.012c.1,0,.188.006.278.012a2.714,2.714,0,0,1,2.442,2.709c0,.016,0,.033,0,.051s0,.041,0,.061a2.877,2.877,0,0,1-.051.428,27.732,27.732,0,0,1-27.538,24.482Zm-13.794-20.67h0a.813.813,0,0,0-.775.742c0,.012,0,.023,0,.035s0,.023,0,.037a1.05,1.05,0,0,0,.025.2c.5,6.744,6.22,11.275,14.231,11.275,7.959,0,13.605-4.566,14.051-11.365,0-.01,0-.02,0-.029l0-.014a.54.54,0,0,0,.007-.068.034.034,0,0,0,0-.012.014.014,0,0,1,0-.006.811.811,0,0,0-.775-.8.034.034,0,0,1-.02,0h-.024l-.01,0a.06.06,0,0,1-.019,0H9871.86a.025.025,0,0,1-.017,0h-.018l-.021,0Z" transform="translate(-9846.497 -17000.197)" fill="#fff"/>
        <g id="Path_5" transform="translate(50.33 22.056)">
          <path id="Path_8" data-name="Path 8" d="M405.247,542.013a5.257,5.257,0,1,1,5.257-5.257,5.257,5.257,0,0,1-5.257,5.257Z" transform="translate(-399.988 -531.499)" fill="#fff"/>
        </g>
        <g id="Line_3" transform="translate(11.435 22.665)">
          <path id="Path_9" data-name="Path 9" d="M247.67,543.568H225.059a4.628,4.628,0,1,1,0-9.255H247.67a4.628,4.628,0,1,1,0,9.255Z" transform="translate(-220.431 -534.313)" fill="#fff"/>
        </g>
      </g>
    </g>
    <g id="Group_80" data-name="Group 80" transform="translate(-1283.027 -256.326)">
      <g id="Group_15" data-name="Group 15" transform="translate(1570.998 332.891)">
        <path id="Path_16" data-name="Path 16" d="M1378.878,577.32c0,5.255-5.391,5.838-9.119,6.2a3.955,3.955,0,0,0,.225,1.3,1,1,0,0,0,.225.494l.224.135a3.94,3.94,0,0,0,.719.09,4.482,4.482,0,0,0,3.144-1.662,1.444,1.444,0,0,1,1.078-.315c1.123,0,2.381.45,2.381,1.482,0,2.471-3.01,4.268-5.48,4.268-4.178,0-6.783-2.785-6.783-7.636,0-4.627,3.459-9.7,8-9.7A5.251,5.251,0,0,1,1378.878,577.32Zm-3.55-.989c0-.18-.044-.27-.134-.27-2.023,0-4.358,2.515-4.717,4.312C1372.229,580.239,1375.328,579.072,1375.328,576.332Z" transform="translate(-1365.492 -565.101)" fill="#49f"/>
        <path id="Path_17" data-name="Path 17" d="M1477.026,572.91c2.067.36,5.526,1.843,7.188,3.863,1.3,1.663.718,4.313-.135,5.526-1.033,1.662-3.1,2.785-6.693,2.785-3.638,0-6.783-2.381-6.423-5.84.134-1.393.36-2.471,1.751-2.471a3.434,3.434,0,0,1,3.325,1.977c.179.539-.36,1.123-.36,1.618,1.077.719,4.716-.045,4.716-1.438,0-.808-4.223-1.8-5.031-2.021a3.845,3.845,0,0,1-2.965-4.132c0-1.932,4.447-5.93,8.895-5.93,1.842,0,4.222.9,4.222,4.447,0,1.573-.313,3.055-1.707,3.055-1.077,0-3.28-1.168-3.054-2.83A5.858,5.858,0,0,0,1477.026,572.91Z" transform="translate(-1457.081 -560.646)" fill="#49f"/>
        <path id="Path_18" data-name="Path 18" d="M1603.025,539.11a1.125,1.125,0,0,1,1.258-.988c1.257,0,3.1,1.033,3.1,2.381,0,1.527-1.8,3.907-3.639,3.907-3.054,0-4.762-3.5-6.333-6.153l-.36,3.055c-.314,2.29-1.393,3.054-2.605,3.054-2.2,0-2.111-1.617-2.246-2.7,0-.269.449-4.627.808-6.6.36-2.2,2.022-11.994,2.74-14.285a1.476,1.476,0,0,1,1.348-1.123c.359,0,2.92.36,3.145,2.785,0,.135-.09.54-.225,1.258l-.584,2.7c-.4,2.156-.944,4.9-1.347,7.411a12.1,12.1,0,0,0,3.413-2.6v.045a11.435,11.435,0,0,0,2.023-3.413l-.046.18.27-.72a1.123,1.123,0,0,1,1.213-.988c1.167,0,3.144.943,3.144,2.471a3.566,3.566,0,0,1-.09.359,12.977,12.977,0,0,1-7.007,8.086,8.108,8.108,0,0,0,1.8,2.65Z" transform="translate(-1562.413 -519.659)" fill="#49f"/>
      </g>
      <g id="Group_17" data-name="Group 17" transform="matrix(0.174, -0.985, 0.985, 0.174, 1553.263, 357.372)">
        <path id="Exclusion_3" data-name="Exclusion 3" d="M12.628,13.446a12.277,12.277,0,0,1-8.51-3.467A13.682,13.682,0,0,1,.01,1.455s0,0,0-.009S0,1.4,0,1.381s0-.044,0-.066A1.3,1.3,0,0,1,1.093,0h22.8c.02,0,.038,0,.059,0a.51.51,0,0,1,.065,0c.02,0,.042,0,.063,0a.481.481,0,0,0,.063,0A1.293,1.293,0,0,1,25.262,1.32a.113.113,0,0,1,0,.024.143.143,0,0,0,0,.029v.011c-.006.066-.01.135-.022.2C24.487,8.345,19.068,13.446,12.628,13.446ZM6.641,3.428a.373.373,0,0,0-.334.362.044.044,0,0,1,0,.015c0,.006,0,.013,0,.019a.368.368,0,0,0,.014.1C6.536,7.19,9.008,9.386,12.47,9.386a5.711,5.711,0,0,0,6.074-5.506.131.131,0,0,1,0-.028.133.133,0,0,0,0-.028V3.813a.38.38,0,0,0-.34-.385H6.641Z" transform="translate(0 0)" fill="#49f" stroke="#49f" stroke-width="1"/>
      </g>
      <g id="Group_26" data-name="Group 26" transform="translate(1478.027 331.544)">
        <path id="Path_10" data-name="Path 10" d="M643.715,517.4c1.349,0,3.146,1.348,3.146,2.651,0-.18-2.561,9.927-2.561,12.892.045.315.09.495.09.54a1.387,1.387,0,0,1-1.528,1.3c-1.84,0-3.009-1.482-3.009-3.413a71.5,71.5,0,0,1,2.605-12.982A1.178,1.178,0,0,1,643.715,517.4Zm5.033-5.57c0,1.258-.853,2.92-2.113,2.92a3.634,3.634,0,0,1-3.279-3.145,2.4,2.4,0,0,1,2.246-2.2,3.636,3.636,0,0,1,2.335.988C648.253,510.8,648.748,511.339,648.748,511.832Z" transform="translate(-639.853 -509.407)" fill="#49f"/>
        <path id="Path_11" data-name="Path 11" d="M713.849,520.748c-.495,3.819-2.022,7.143-2.74,10.826-.315,1.393-.539,2.785-.763,4.223.359,1.8,1.212,4.357,1.212,5.57,0,.4-.269.853-1.033.988-1.751,0-2.56-.808-3.458-2.74a15.308,15.308,0,0,1-1.752,1.662,3.033,3.033,0,0,1-1.887.9c-3.459,0-6.468-3.593-6.468-7.366,0-3.729,2.965-9.523,7.771-9.523.629,0,2.157,0,2.874,1.033a49.315,49.315,0,0,0,1.843-7.5c.134-1.258,1.8-1.033,2.515-.674A2.7,2.7,0,0,1,713.849,520.748Zm-7.232,8.581a5.034,5.034,0,0,0-4.313,3.5c-.629,1.707-1.077,4.492,0,6.019A17.585,17.585,0,0,0,706.617,529.329Z" transform="translate(-689.456 -516.751)" fill="#49f"/>
        <path id="Path_12" data-name="Path 12" d="M832.763,577.32c0,5.255-5.39,5.838-9.118,6.2a3.951,3.951,0,0,0,.225,1.3,1.008,1.008,0,0,0,.224.494l.226.135a3.921,3.921,0,0,0,.717.09,4.484,4.484,0,0,0,3.146-1.662,1.442,1.442,0,0,1,1.077-.315c1.123,0,2.382.45,2.382,1.482,0,2.471-3.01,4.268-5.481,4.268-4.177,0-6.783-2.785-6.783-7.636,0-4.627,3.46-9.7,8-9.7A5.25,5.25,0,0,1,832.763,577.32Zm-3.547-.989c0-.18-.046-.27-.136-.27-2.021,0-4.357,2.515-4.717,4.312C826.116,580.239,829.216,579.072,829.216,576.332Z" transform="translate(-795.791 -563.754)" fill="#49f"/>
        <path id="Path_13" data-name="Path 13" d="M935.529,573.686a2.877,2.877,0,0,1,2.291,2.875,11.925,11.925,0,0,1-.27,2.29,20.957,20.957,0,0,1-1.348,3.818c.225,2.336,1.887,5.84,1.887,7.638,0,.4-.269.853-.988.987-1.752,0-3.1-1.212-4-3.054-1.213,1.572-2.561,2.7-3.863,2.7-2.74,0-6.245-3.594-6.245-7.367s3.055-9.748,7.861-9.748a4.926,4.926,0,0,1,2.65.988c.045-1.078.853-1.123,1.707-1.123h.315Zm-2.74,4.357a5.032,5.032,0,0,0-4.312,3.5c-.63,1.707-1.079,4.492,0,6.019A17.587,17.587,0,0,0,932.789,578.043Z" transform="translate(-885.796 -565.241)" fill="#49f"/>
        <path id="Path_14" data-name="Path 14" d="M1053.682,572.91c2.066.36,5.524,1.843,7.187,3.863,1.3,1.663.719,4.313-.135,5.526-1.033,1.662-3.1,2.785-6.693,2.785-3.638,0-6.783-2.381-6.424-5.84.136-1.393.36-2.471,1.753-2.471a3.432,3.432,0,0,1,3.323,1.977c.18.539-.359,1.123-.359,1.618,1.078.719,4.717-.045,4.717-1.438,0-.808-4.222-1.8-5.031-2.021a3.844,3.844,0,0,1-2.965-4.132c0-1.932,4.448-5.93,8.895-5.93,1.842,0,4.223.9,4.223,4.447,0,1.573-.315,3.055-1.707,3.055-1.079,0-3.28-1.168-3.056-2.83A5.853,5.853,0,0,0,1053.682,572.91Z" transform="translate(-994.02 -559.299)" fill="#49f"/>
      </g>
    </g>
  </g>
</svg>
