<svg id="Group_13" data-name="Group 13" xmlns="http://www.w3.org/2000/svg" width="79" height="78.999" viewBox="0 0 79 78.999">
  <g id="Group_10" data-name="Group 10" transform="translate(0 0)">
    <path id="Path_36" data-name="Path 36" d="M37.264,0h4.472A37.264,37.264,0,0,1,79,37.264v4.472A37.264,37.264,0,0,1,41.736,79H37.264A37.264,37.264,0,0,1,0,41.735V37.264A37.264,37.264,0,0,1,37.264,0Z" transform="translate(0 0)" fill="#49f"/>
    <path id="Exclusion_5" data-name="Exclusion 5" d="M9885.586,17069.744a27.735,27.735,0,0,1-27.571-24.748v-.014c-.009-.1-.013-.184-.013-.273a2.718,2.718,0,0,1,2.387-2.7.363.363,0,0,1,.056-.008H9861a.441.441,0,0,1,.057.008h49.132a2.692,2.692,0,0,1,.274-.012c.1,0,.188.006.278.012a2.714,2.714,0,0,1,2.442,2.709c0,.016,0,.033,0,.051s0,.041,0,.061a2.877,2.877,0,0,1-.051.428,27.732,27.732,0,0,1-27.538,24.482Zm-13.794-20.67h0a.813.813,0,0,0-.775.742c0,.012,0,.023,0,.035s0,.023,0,.037a1.05,1.05,0,0,0,.025.2c.5,6.744,6.22,11.275,14.231,11.275,7.959,0,13.605-4.566,14.051-11.365,0-.01,0-.02,0-.029l0-.014a.54.54,0,0,0,.007-.068.034.034,0,0,0,0-.012.014.014,0,0,1,0-.006.811.811,0,0,0-.775-.8.034.034,0,0,1-.02,0h-.024l-.01,0a.06.06,0,0,1-.019,0H9871.86a.025.025,0,0,1-.017,0h-.018l-.021,0Z" transform="translate(-9846.497 -17000.197)" fill="#fff"/>
    <g id="Path_5" transform="translate(50.33 22.056)">
      <path id="Path_8" data-name="Path 8" d="M405.247,542.013a5.257,5.257,0,1,1,5.257-5.257,5.257,5.257,0,0,1-5.257,5.257Z" transform="translate(-399.988 -531.499)" fill="#fff"/>
    </g>
    <g id="Line_3" transform="translate(11.435 22.665)">
      <path id="Path_9" data-name="Path 9" d="M247.67,543.568H225.059a4.628,4.628,0,1,1,0-9.255H247.67a4.628,4.628,0,1,1,0,9.255Z" transform="translate(-220.431 -534.313)" fill="#fff"/>
    </g>
  </g>
</svg>
